<svg id="Layer_1" data-name="Layer 1" xmlns="http://www.w3.org/2000/svg" viewBox="0 0 175 175"><defs><style>.cls-1{fill:#e5e5e5;}.cls-2{fill:#d9414a;}</style></defs><path class="cls-1" d="M87.5,168.51A74.57,74.57,0,0,1,34.77,41.21,74.57,74.57,0,0,1,140.23,146.67,74.09,74.09,0,0,1,87.5,168.51Zm0-143a68.45,68.45,0,1,0,48.41,20.05A68,68,0,0,0,87.5,25.48Z"/><path class="cls-2" d="M87.5,162.63A74.57,74.57,0,0,1,34.77,35.33,74.57,74.57,0,0,1,140.23,140.79,74.09,74.09,0,0,1,87.5,162.63Zm0-143A68.46,68.46,0,0,0,39.09,136.47a68.46,68.46,0,0,0,96.82-96.82A68,68,0,0,0,87.5,19.6Z"/><ellipse class="cls-2" cx="64.27" cy="74.77" rx="9.73" ry="12.86"/><ellipse class="cls-2" cx="112.73" cy="74.77" rx="9.73" ry="12.86"/><path class="cls-2" d="M115.87,125.74a3,3,0,0,1-2.23-1A34.49,34.49,0,0,0,87.5,113.56a34.49,34.49,0,0,0-26.14,11.21,3.05,3.05,0,0,1-4.46-4.17,40.93,40.93,0,0,1,30.6-13.15,40.36,40.36,0,0,1,30.6,13.15,3,3,0,0,1-.14,4.31A3,3,0,0,1,115.87,125.74Z"/></svg>