<svg id="Layer_1" data-name="Layer 1" xmlns="http://www.w3.org/2000/svg" viewBox="0 0 129 129"><defs><style>.cls-1,.cls-2{fill:#87c33f;}.cls-1{opacity:0.5;}.cls-3,.cls-4{fill:none;stroke:#61a405;stroke-miterlimit:10;}.cls-3{stroke-width:2px;}.cls-4{stroke-width:6px;}.cls-5{fill:#61a405;}</style></defs><circle class="cls-1" cx="64.39" cy="65" r="63"/><circle class="cls-2" cx="64.39" cy="65" r="60"/><circle class="cls-3" cx="64.39" cy="65" r="46"/><circle class="cls-4" cx="64.39" cy="65" r="38"/><path class="cls-5" d="M60.12,52.8a4.61,4.61,0,0,0-4.61-4.61,4.53,4.53,0,0,0-2.52.75,4.52,4.52,0,0,0-2.51-.75,4.61,4.61,0,0,0-3.41,7.72h0L53,61.83l5.63-5.63A4.59,4.59,0,0,0,60.12,52.8Z"/><path class="cls-5" d="M82.91,52.8a4.6,4.6,0,0,0-4.61-4.61,4.55,4.55,0,0,0-2.52.75,4.49,4.49,0,0,0-2.51-.75,4.61,4.61,0,0,0-3.4,7.72h0l5.92,5.91,5.63-5.63A4.59,4.59,0,0,0,82.91,52.8Z"/><path class="cls-5" d="M83.14,71.89a1.47,1.47,0,0,1,1.09.48,1.49,1.49,0,0,1-.07,2.12c-.2.19-20.52,18.76-39.58,0a1.5,1.5,0,0,1,2.11-2.14c7.14,7.05,15.25,9.19,24.09,6.39A33,33,0,0,0,82.11,72.3,1.47,1.47,0,0,1,83.14,71.89Z"/></svg>