<svg id="Layer_1" data-name="Layer 1" xmlns="http://www.w3.org/2000/svg" viewBox="0 0 130 129"><defs><style>.cls-1,.cls-2{fill:#0cb452;}.cls-1{opacity:0.5;}.cls-3,.cls-4{fill:none;}.cls-3{stroke:#0c8037;stroke-width:2px;}.cls-3,.cls-4,.cls-6{stroke-miterlimit:10;}.cls-4,.cls-6{stroke:#018236;}.cls-4{stroke-width:5px;}.cls-5,.cls-6{fill:#018236;}</style></defs><circle class="cls-1" cx="65" cy="65" r="63"/><circle class="cls-2" cx="65" cy="65" r="60"/><circle class="cls-3" cx="65" cy="65" r="46"/><circle class="cls-4" cx="65" cy="65" r="38"/><path class="cls-5" d="M83,59.55c-3.83-.74-7.38,2.36-7.78,6.17a8,8,0,0,0,7.28,8.65C92.43,75.34,92.41,58.84,83,59.55Z"/><path class="cls-5" d="M45.46,59.55C36,58.84,36,75.34,46,74.37a8,8,0,0,0,7.28-8.65C52.83,61.91,49.29,58.81,45.46,59.55Z"/><path class="cls-6" d="M67.78,68.62c.14,2.57-.41,6.75-4,6.3-3-.38-4.1-3.82-3.33-6.4.13-.42.85-.36.81.12-.16,2,0,4.87,2.59,5.22,2.92.42,3-3.34,2.86-5.24C66.7,67.94,67.74,68,67.78,68.62Z"/><path class="cls-6" d="M84.37,56.4c0,.68-1,.67-1,0-.15-3.76-.92-9.43-6-8.85-4.53.52-5.58,5.44-5.56,9.16a.19.19,0,0,1-.36.06c-1.06-4.2,1.07-9.71,5.84-10.29C83,45.79,84.21,52.06,84.37,56.4Z"/><path class="cls-6" d="M51.22,46.48c4.77.58,6.91,6.09,5.85,10.29a.19.19,0,0,1-.37-.06c0-3.72-1-8.64-5.55-9.16-5.12-.58-5.88,5.09-6,8.85,0,.67-1.08.68-1.06,0C44.24,52.06,45.49,45.79,51.22,46.48Z"/></svg>