<svg id="Layer_1" data-name="Layer 1" xmlns="http://www.w3.org/2000/svg" viewBox="0 0 128 129"><defs><style>.cls-1,.cls-2{fill:#ff2442;}.cls-1{opacity:0.5;}.cls-3,.cls-4{fill:none;stroke:#d30737;stroke-miterlimit:10;}.cls-3{stroke-width:2px;}.cls-4{stroke-width:5px;}.cls-5{fill:#d30737;}</style></defs><circle class="cls-1" cx="64" cy="65" r="63"/><circle class="cls-2" cx="64" cy="65" r="60"/><circle class="cls-3" cx="64" cy="65" r="46"/><circle class="cls-4" cx="64" cy="65" r="38"/><path class="cls-5" d="M69.64,68a.77.77,0,0,1-.41-1.43l14.59-9a.77.77,0,0,1,.81,1.32L70,67.91A.83.83,0,0,1,69.64,68Z"/><path class="cls-5" d="M77.57,62.58A2.84,2.84,0,1,1,73,65.17"/><path class="cls-5" d="M60,68a.8.8,0,0,1-.4-.11L45,58.87a.77.77,0,0,1,.81-1.32l14.59,9A.77.77,0,0,1,60,68Z"/><path class="cls-5" d="M52.08,62.58a2.84,2.84,0,1,0,4.56,2.59"/><path class="cls-5" d="M55.14,82.57a.77.77,0,0,1-.53-1.34c.11-.1,10.6-9.69,20.44,0a.78.78,0,0,1,0,1.1.78.78,0,0,1-1.1,0c-3.68-3.64-7.87-4.75-12.44-3.3a17,17,0,0,0-5.85,3.31A.77.77,0,0,1,55.14,82.57Z"/><path class="cls-5" d="M76.61,49.84h-4a.33.33,0,0,1,0-.65h3.64V45.64a.32.32,0,0,1,.33-.32.32.32,0,0,1,.32.32v3.87A.32.32,0,0,1,76.61,49.84Z"/><path class="cls-5" d="M82.57,49.84h-4a.33.33,0,0,1-.33-.33V45.64a.33.33,0,0,1,.65,0v3.55h3.64a.33.33,0,1,1,0,.65Z"/><path class="cls-5" d="M78.61,55.11a.32.32,0,0,1-.33-.32V50.91a.33.33,0,0,1,.33-.32h4a.33.33,0,1,1,0,.65H78.93v3.55A.32.32,0,0,1,78.61,55.11Z"/><path class="cls-5" d="M76.61,55.11a.32.32,0,0,1-.33-.32V51.24H72.64a.33.33,0,0,1,0-.65h4a.32.32,0,0,1,.32.32v3.88A.32.32,0,0,1,76.61,55.11Z"/></svg>