<svg id="Layer_1" data-name="Layer 1" xmlns="http://www.w3.org/2000/svg" viewBox="0 0 130 112"><defs><style>.cls-1{fill:#98332b;}.cls-2{fill:#fff;}</style></defs><rect class="cls-1" x="9.68" y="6.66" width="112.78" height="96.69" rx="17.17"/><path class="cls-2" d="M85.19,53.22H66.72v5.43H79.87c-.64,7.62-7,10.87-13,10.87a14.52,14.52,0,0,1,0-29,14.09,14.09,0,0,1,9.79,3.93l3.81-3.94A19.37,19.37,0,0,0,66.72,35,20.29,20.29,0,0,0,46.61,55,20.22,20.22,0,0,0,67,75c10.69,0,18.51-7.32,18.51-18.15a16.35,16.35,0,0,0-.33-3.6Z"/></svg>