<?xml version="1.0" encoding="UTF-8"?>
<svg id="Layer_1" data-name="Layer 1" xmlns="http://www.w3.org/2000/svg" xmlns:blush="http://design.blush" version="1.1" viewBox="0 0 312 407.9">
  <defs>
    <style>
      .cls-1 {
        fill: hsl(357, 41%, 15%);
        fill-rule: evenodd;
      }

      .cls-1, .cls-2 {
        stroke-width: 0px;
      }

      .cls-2 {
        fill: hsl(357, 41%, 25%);
      }
    </style>
  </defs>
  <path id="Path" class="cls-2" blush:i="0.0.0.0" d="M12.6,94.6c7.5-33.9,23.5-56.7,50.7-71.8,20-11.1,44.9-17.3,73.8-18.3,24.7-.9,53.4.6,53.7.6,1.1,0,2,.8,2.3,1.8s0,2.1-.9,2.7c-.6.4-58,42.4-70.1,57.3-15.1,18.5-25.2,44.8-27,70.2-1.8,23.8,14.1,67.1,25.6,98.7,3.8,10.4,7.1,19.4,9.4,26.7,8.6,26.7,51.6,136.7,52.1,137.8.3.8.2,1.6-.3,2.3-.5.7-1.2,1.1-2.1,1.1h-38c-.7,0-1.4-.3-1.9-.9-29.6-34.9-52.2-72.1-76.3-111.5l-5.8-9.4c-17.4-28.5-32.1-69.4-41.7-97.7-9.9-29.3-11-56.2-3.6-89.7h0Z"/>
  <path id="Path_2" data-name="Path 2" class="cls-2" blush:i="0.0.0.1" d="M135,206.7c-.4-.8-.3-1.7.1-2.5.5-.7,1.3-1.2,2.2-1.1h1.9c37.8.1,68.6-30.2,69.1-68s-29.5-68.9-67.3-69.8c-1,0-1.8-.6-2.2-1.5s-.3-1.9.4-2.6c20.9-25.1,82.7-14.8,85.3-14.4.7,0,1.3.5,1.7,1.1l53.7,81.8c.5.8.5,1.9,0,2.7l-53.6,86c-.4.6-.9,1-1.6,1.1-14.2,2.9-28.7,4.5-43.2,4.6-19.5,0-39.8-3.6-46.5-17.4h0Z"/>
  <path id="Shape" class="cls-1" blush:i="0.0.0.2" d="M95.9,281.9c-17-29.1-32-69.2-41.6-97.6-9.9-29.4-11-56.2-3.6-89.7,7.4-33.9,23.5-56.7,50.7-71.8,20-11.1,44.8-17.3,73.8-18.3,23.2-.9,47,6.1,70.8,20.8,21.2,13,35,26,43.6,41,11.9,20.7,16.7,47.8,13.7,76.2-3.4,31.9-14.4,61.9-26.4,92.5-9.3,23.8-21.6,49.1-37.3,77.1-17.7,31.2-36.9,61.6-57.7,90.8-.5.6-1.2,1-1.9,1h-.1c-.7,0-1.4-.3-1.9-.9-30.5-36-54.8-74.4-82-121h-.1ZM113.8,106.9c-10.9,25.3-5.7,54.6,13.3,74.6h0c12.5,13.3,29.9,21,48.2,21.5h1.9c37.8,0,68.6-30.2,69.1-68s-29.5-68.9-67.3-69.8h-1.9c-27.5,0-52.4,16.4-63.3,41.7h0Z"/>
</svg>
