<svg id="Layer_1" data-name="Layer 1" xmlns="http://www.w3.org/2000/svg" viewBox="0 0 237.33 66.67"><defs><style>.cls-1{fill:#606060;}</style></defs><path class="cls-1" d="M38.05,61.76H29.78A18.14,18.14,0,0,1,11.64,43.62V35.35A18.09,18.09,0,0,1,25.46,17.73a1.86,1.86,0,0,1,.33,0l15.54-.15a1.53,1.53,0,0,1,.3,0A18.16,18.16,0,0,1,56.19,35.35v8.27A18.14,18.14,0,0,1,38.05,61.76M29.76,22.29A13.54,13.54,0,0,0,16.3,35.4v7.86A13.86,13.86,0,0,0,30.15,57.12h7.53A13.87,13.87,0,0,0,51.54,43.26V35.74a13.91,13.91,0,0,0-8.13-12.62A10.52,10.52,0,0,0,39,22.19Z"/><path class="cls-1" d="M32.83,54.81h0a13.38,13.38,0,0,1-8.68-3.05L24,51.64a1.56,1.56,0,0,1-.66-1.28,1.54,1.54,0,0,1,.28-.89,1.58,1.58,0,0,1,2.19-.39l.33.26c3,2.48,6.87,3,11.47,1.54l.23-.07A12.68,12.68,0,0,0,46,43.4c.08-.21.15-.43.21-.65a1.56,1.56,0,0,1,3.07.41,1.48,1.48,0,0,1,0,.41c-1.27,4.68-5.36,8.62-10.66,10.3a19.23,19.23,0,0,1-5.72.94"/><path class="cls-1" d="M33.67,13.6A4.6,4.6,0,0,1,37.81,16a1.86,1.86,0,0,0,1.65,1H41a.84.84,0,0,0,.81-1,8.25,8.25,0,0,0-8.17-5.88,8.17,8.17,0,0,0-8.26,6.34.49.49,0,0,0,.49.58h2a1.87,1.87,0,0,0,1.66-1,4.57,4.57,0,0,1,4.13-2.41"/><path class="cls-1" d="M85.52,49.51l5.15,6.19H83.74l-3-4.05a13.15,13.15,0,0,1-2.62.27A11.83,11.83,0,0,1,66,39.86a12.06,12.06,0,0,1,24.12,0A11.89,11.89,0,0,1,85.52,49.51Zm-7.41-2.82c3.75,0,6.2-2.71,6.2-6.83S81.86,33,78.11,33s-6.23,2.65-6.23,6.83S74.29,46.69,78.11,46.69Z"/><path class="cls-1" d="M92.84,28a3.42,3.42,0,1,1,3.42,3.08A3.17,3.17,0,0,1,92.84,28Zm.54,5h5.73V51.68H93.38Z"/><path class="cls-1" d="M103.26,26.9H109V40.6l5.66-7.6h7.06l-7.77,9.37,7.84,9.31h-7.1L109,43.85v7.83h-5.73Z"/><path class="cls-1" d="M131,52c-4.28,0-7.3-2.35-7.5-5.7h3.15c.17,1.78,1.74,3.12,4.32,3.12,2.41,0,3.75-1.21,3.75-2.72,0-4.08-10.85-1.7-10.85-8.54,0-2.81,2.65-5.12,6.73-5.12s6.73,2.18,6.94,5.76h-3.05c-.14-1.84-1.54-3.18-4-3.18-2.24,0-3.58,1.07-3.58,2.54,0,4.36,10.65,2,10.78,8.54C137.65,49.71,135,52,131,52Z"/><path class="cls-1" d="M142.61,35.84h-2.38V33.33h2.38V28.71h3v4.62h4.79v2.51h-4.79V46.66c0,1.81.67,2.45,2.55,2.45h2.24v2.57H147.7c-3.25,0-5.09-1.33-5.09-5Z"/><path class="cls-1" d="M161.69,33a7.63,7.63,0,0,1,6.84,3.65V33.33h3.08V51.68h-3.08V48.27A7.7,7.7,0,0,1,161.66,52c-4.89,0-8.67-3.85-8.67-9.55S156.77,33,161.69,33Zm.61,2.65c-3.35,0-6.2,2.44-6.2,6.76s2.85,6.87,6.2,6.87,6.23-2.51,6.23-6.84S165.65,35.68,162.3,35.68Z"/><path class="cls-1" d="M179.81,51.68h-3.05V33.33h3.05v3A6.18,6.18,0,0,1,185.74,33v3.14h-.81c-2.91,0-5.12,1.31-5.12,5.56Z"/><path class="cls-1" d="M189.92,35.84h-2.38V33.33h2.38V28.71H193v4.62h4.79v2.51H193V46.66c0,1.81.67,2.45,2.54,2.45h2.25v2.57H195c-3.25,0-5.09-1.33-5.09-5Z"/><path class="cls-1" d="M207.94,52c-4.29,0-7.3-2.35-7.5-5.7h3.14c.17,1.78,1.74,3.12,4.32,3.12,2.42,0,3.75-1.21,3.75-2.72,0-4.08-10.85-1.7-10.85-8.54,0-2.81,2.65-5.12,6.74-5.12s6.73,2.18,6.93,5.76h-3.05c-.13-1.84-1.54-3.18-4-3.18-2.25,0-3.59,1.07-3.59,2.54,0,4.36,10.65,2,10.79,8.54C214.64,49.71,212,52,207.94,52Z"/><path class="cls-1" d="M222.94,32.71h-2.7L219.81,34H218l2.62-7.24h2L225.24,34h-1.87Zm-1.35-4-.89,2.65h1.79Z"/><path class="cls-1" d="M226,26.74h1.76V34H226Z"/></svg>